<?xml version="1.0" encoding="UTF-8" standalone="no"?>
<svg
   width="5120"
   height="2880"
   viewBox="0 0 5120 2880"
   version="1.1"
   id="svg1"
   xmlns="http://www.w3.org/2000/svg"
   xmlns:svg="http://www.w3.org/2000/svg">
  <defs
     id="defs1" />
  <rect
     id="rect1"
     width="5120"
     height="2880"
     x="0"
     y="0"
     style="fill:#eceff4;fill-opacity:1" />
  <g
     id="g17"
     transform="matrix(0.6,0,0,1,300,0)">
    <rect
       style="fill:#b48ead;fill-opacity:1"
       id="rect17"
       width="100"
       height="2880"
       x="2400"
       y="0" />
    <rect
       style="fill:#a3be8c;fill-opacity:1"
       id="rect16"
       width="100"
       height="2880"
       x="2300"
       y="0" />
    <rect
       style="fill:#ebcb8b;fill-opacity:1"
       id="rect15"
       width="100"
       height="2880"
       x="2200"
       y="0" />
    <rect
       style="fill:#d08770;fill-opacity:1"
       id="rect14"
       width="100"
       height="2880"
       x="2100"
       y="0" />
    <rect
       style="fill:#bf616a;fill-opacity:1"
       id="rect13"
       width="100"
       height="2880"
       x="2000"
       y="0" />
    <rect
       style="fill:#5e81ac;fill-opacity:1"
       id="rect12"
       width="100"
       height="2880"
       x="1900"
       y="0" />
    <rect
       style="fill:#81a1c1;fill-opacity:1"
       id="rect11"
       width="100"
       height="2880"
       x="1800"
       y="0" />
    <rect
       style="fill:#88c0d0;fill-opacity:1"
       id="rect10"
       width="100"
       height="2880"
       x="1700"
       y="0" />
    <rect
       style="fill:#8fbcbb;fill-opacity:1"
       id="rect9"
       width="100"
       height="2880"
       x="1600"
       y="0" />
    <rect
       style="fill:#2e3440;fill-opacity:1"
       id="rect8"
       width="100"
       height="2880"
       x="1500"
       y="0" />
    <rect
       style="fill:#3b4252;fill-opacity:1"
       id="rect2"
       width="100"
       height="2880"
       x="1400"
       y="0" />
    <rect
       style="fill:#434c5e;fill-opacity:1"
       id="rect4"
       width="100"
       height="2880"
       x="1300"
       y="0" />
    <rect
       style="fill:#4c566a;fill-opacity:1"
       id="rect5"
       width="100"
       height="2880"
       x="1200"
       y="0" />
    <rect
       style="fill:#d8dee9;fill-opacity:1"
       id="rect6"
       width="100"
       height="2880"
       x="1100"
       y="0" />
    <rect
       style="fill:#e5e9f0;fill-opacity:1"
       id="rect7"
       width="100"
       height="2880"
       x="1000"
       y="0" />
  </g>
</svg>
